<?xml version="1.0" standalone="no"?>
<!DOCTYPE svg PUBLIC "-//W3C//DTD SVG 20010904//EN"
 "http://www.w3.org/TR/2001/REC-SVG-20010904/DTD/svg10.dtd">
<svg version="1.0" xmlns="http://www.w3.org/2000/svg"
 width="1545.000000pt" height="218.000000pt" viewBox="0 0 1545.000000 218.000000"
 preserveAspectRatio="xMidYMid meet">

<g transform="translate(0.000000,218.000000) scale(0.100000,-0.100000)"
fill="#000000" stroke="none">
<path d="M3130 1990 l0 -190 -85 0 -85 0 0 -135 0 -135 84 0 85 0 3 -422 c4
-383 6 -428 23 -473 38 -102 79 -150 166 -189 120 -55 307 -55 430 0 l59 27 0
127 0 128 -52 -20 c-66 -26 -189 -30 -233 -8 -16 8 -40 30 -52 49 -23 34 -23
35 -23 407 l0 374 180 0 180 0 0 135 0 135 -180 0 -180 0 0 190 0 190 -160 0
-160 0 0 -190z"/>
<path d="M640 1819 c-83 -16 -170 -67 -247 -145 l-73 -74 0 100 0 100 -155 0
-155 0 0 -685 0 -685 155 0 155 0 0 418 c0 353 2 427 16 472 45 151 151 226
312 219 95 -5 162 -36 209 -97 64 -84 66 -101 71 -579 l4 -433 154 0 155 0 -4
498 c-4 540 -5 549 -64 666 -33 64 -116 147 -183 181 -95 48 -237 66 -350 44z"/>
<path d="M2025 1814 c-226 -49 -413 -224 -493 -459 -25 -74 -27 -92 -27 -245
1 -155 2 -170 29 -245 41 -119 80 -181 170 -270 148 -147 295 -200 531 -193
148 5 243 31 348 95 57 35 177 138 177 153 0 8 -164 153 -178 158 -5 1 -31
-16 -58 -38 -108 -90 -254 -133 -381 -112 -87 15 -181 61 -228 113 -39 43 -89
141 -100 197 l-7 32 508 0 507 0 -6 133 c-4 103 -11 152 -31 222 -87 292 -293
457 -586 470 -73 3 -126 0 -175 -11z m290 -276 c50 -26 107 -80 138 -129 22
-36 57 -143 57 -174 l0 -25 -350 0 c-399 0 -366 -9 -331 92 47 138 125 221
241 259 14 5 63 7 110 5 68 -2 95 -8 135 -28z"/>
<path d="M4527 1814 c-182 -33 -352 -147 -452 -304 -84 -131 -116 -243 -116
-399 1 -343 215 -622 536 -697 110 -25 315 -15 418 21 90 31 203 103 267 169
l44 46 -94 95 -93 94 -48 -43 c-175 -157 -420 -166 -577 -21 -96 88 -142 200
-142 340 1 132 41 234 127 322 71 73 144 106 249 111 129 7 211 -23 323 -117
l54 -46 99 105 99 105 -58 52 c-172 154 -391 211 -636 167z"/>
<path d="M5965 1821 c-236 -38 -432 -174 -535 -372 -137 -264 -100 -598 91
-812 93 -104 237 -190 372 -222 93 -22 276 -20 373 5 393 100 623 497 513 890
-65 235 -252 423 -489 490 -83 24 -244 34 -325 21z m286 -309 c83 -40 159
-119 201 -208 41 -87 51 -228 23 -330 -50 -185 -208 -304 -403 -304 -191 1
-361 145 -403 341 -15 69 -6 211 17 271 45 118 139 212 249 248 94 31 229 24
316 -18z"/>
<path d="M7686 1814 c-98 -24 -197 -91 -269 -184 l-27 -35 0 103 0 102 -160 0
-160 0 0 -685 0 -685 160 0 160 0 0 423 c0 465 2 481 60 569 17 26 54 61 81
79 44 28 62 33 129 37 133 8 211 -35 263 -146 l32 -67 3 -447 3 -448 159 0
159 0 3 448 c3 442 3 448 26 497 49 106 124 156 245 163 161 10 256 -67 286
-233 7 -36 11 -215 11 -467 l0 -408 155 0 155 0 0 483 c0 533 -4 570 -61 685
-130 256 -513 309 -767 107 -31 -25 -68 -61 -82 -80 -14 -19 -28 -35 -31 -35
-3 0 -11 11 -17 25 -20 43 -102 123 -158 156 -96 54 -239 72 -358 43z"/>
<path d="M10164 1816 c-119 -27 -236 -103 -310 -199 l-29 -39 -3 111 -3 111
-159 0 -160 0 0 -895 0 -895 160 0 160 0 0 311 0 312 53 -55 c112 -117 222
-167 382 -175 257 -13 471 115 590 352 49 99 66 172 72 315 13 296 -92 525
-301 662 -122 79 -315 115 -452 84z m187 -286 c157 -60 250 -217 250 -421 0
-217 -105 -372 -288 -425 -131 -38 -282 5 -380 109 -60 64 -88 114 -108 199
-50 213 34 426 205 517 33 18 79 36 102 41 62 13 155 4 219 -20z"/>
<path d="M13315 1820 c-110 -23 -225 -93 -286 -174 -19 -25 -36 -46 -40 -46
-3 0 -5 21 -6 48 0 26 -1 71 -2 100 l-1 52 -155 0 -155 0 0 -685 0 -685 158 0
157 0 -1 378 c0 207 3 409 7 449 14 121 68 206 162 255 60 31 190 37 254 13
67 -26 128 -86 155 -153 23 -56 23 -65 26 -499 l3 -443 155 0 155 0 -3 512
c-3 502 -4 514 -26 572 -12 33 -33 78 -46 100 -33 57 -127 143 -181 167 -95
42 -234 58 -330 39z"/>
<path d="M11565 1809 c-138 -19 -351 -89 -342 -113 2 -6 21 -61 41 -122 l37
-111 99 34 c116 38 284 58 374 43 106 -17 190 -69 226 -140 19 -38 45 -164 36
-179 -3 -4 -47 4 -98 17 -80 21 -116 25 -258 25 -128 1 -180 -3 -230 -17 -151
-41 -265 -128 -317 -240 -26 -56 -28 -71 -28 -176 0 -109 2 -119 32 -182 79
-168 254 -256 483 -245 155 8 251 46 358 142 l52 47 0 -81 0 -81 156 0 155 0
-3 472 c-4 409 -7 481 -21 533 -56 193 -174 307 -372 360 -73 20 -283 28 -380
14z m300 -749 c39 -6 94 -17 123 -25 l52 -16 0 -67 c0 -82 -12 -127 -48 -180
-37 -56 -94 -96 -172 -122 -54 -18 -82 -21 -160 -18 -82 3 -102 8 -148 33 -72
39 -105 95 -105 174 2 149 110 227 318 230 39 0 102 -4 140 -9z"/>
<path d="M14039 1778 c5 -13 70 -169 144 -348 74 -179 198 -479 276 -667 l142
-342 -20 -39 c-23 -46 -81 -99 -117 -108 -42 -11 -147 2 -196 24 l-46 20 -53
-114 c-28 -63 -50 -116 -48 -118 2 -2 22 -13 45 -24 119 -60 325 -75 439 -32
86 32 178 127 233 240 23 47 148 360 277 695 130 336 255 660 279 720 l44 110
-160 3 c-89 1 -162 1 -164 -1 -2 -2 -83 -228 -179 -502 -96 -274 -177 -500
-180 -503 -2 -3 -9 8 -16 24 -41 108 -369 977 -369 980 0 2 -76 4 -170 4
l-170 0 9 -22z"/>
</g>
</svg>
