<svg width="152" height="43" viewBox="0 0 152 43" fill="none" xmlns="http://www.w3.org/2000/svg">
<path d="M3.93 7.548C4.458 7.548 4.838 7.422 5.07 7.17C5.302 6.918 5.418 6.566 5.418 6.114C5.418 5.914 5.388 5.732 5.328 5.568C5.268 5.404 5.176 5.264 5.052 5.148C4.932 5.028 4.778 4.936 4.59 4.872C4.406 4.808 4.186 4.776 3.93 4.776H2.874V7.548H3.93ZM3.93 3.258C4.546 3.258 5.074 3.332 5.514 3.48C5.958 3.624 6.322 3.824 6.606 4.08C6.894 4.336 7.106 4.638 7.242 4.986C7.378 5.334 7.446 5.71 7.446 6.114C7.446 6.55 7.376 6.95 7.236 7.314C7.096 7.678 6.882 7.99 6.594 8.25C6.306 8.51 5.94 8.714 5.496 8.862C5.056 9.006 4.534 9.078 3.93 9.078H2.874V12H0.846V3.258H3.93ZM10.8808 5.682C11.3528 5.682 11.7828 5.756 12.1708 5.904C12.5588 6.052 12.8908 6.264 13.1668 6.54C13.4468 6.816 13.6628 7.152 13.8148 7.548C13.9708 7.94 14.0488 8.382 14.0488 8.874C14.0488 9.37 13.9708 9.818 13.8148 10.218C13.6628 10.614 13.4468 10.952 13.1668 11.232C12.8908 11.508 12.5588 11.722 12.1708 11.874C11.7828 12.022 11.3528 12.096 10.8808 12.096C10.4048 12.096 9.97081 12.022 9.57881 11.874C9.19081 11.722 8.85481 11.508 8.57081 11.232C8.29081 10.952 8.07281 10.614 7.91681 10.218C7.76481 9.818 7.68881 9.37 7.68881 8.874C7.68881 8.382 7.76481 7.94 7.91681 7.548C8.07281 7.152 8.29081 6.816 8.57081 6.54C8.85481 6.264 9.19081 6.052 9.57881 5.904C9.97081 5.756 10.4048 5.682 10.8808 5.682ZM10.8808 10.716C11.3088 10.716 11.6228 10.566 11.8228 10.266C12.0268 9.962 12.1288 9.502 12.1288 8.886C12.1288 8.27 12.0268 7.812 11.8228 7.512C11.6228 7.212 11.3088 7.062 10.8808 7.062C10.4408 7.062 10.1188 7.212 9.91481 7.512C9.71081 7.812 9.60881 8.27 9.60881 8.886C9.60881 9.502 9.71081 9.962 9.91481 10.266C10.1188 10.566 10.4408 10.716 10.8808 10.716ZM24.0243 5.778L22.0923 12H20.5803C20.5003 12 20.4323 11.976 20.3763 11.928C20.3203 11.88 20.2763 11.8 20.2443 11.688L19.3563 8.586C19.3123 8.446 19.2723 8.308 19.2363 8.172C19.2043 8.036 19.1743 7.898 19.1463 7.758C19.1183 7.898 19.0863 8.038 19.0503 8.178C19.0183 8.318 18.9803 8.458 18.9363 8.598L18.0363 11.688C17.9763 11.896 17.8443 12 17.6403 12H16.2003L14.2683 5.778H15.7563C15.8883 5.778 15.9983 5.81 16.0863 5.874C16.1783 5.934 16.2403 6.01 16.2723 6.102L16.8963 8.892C16.9483 9.104 16.9943 9.31 17.0343 9.51C17.0743 9.706 17.1103 9.904 17.1423 10.104C17.1943 9.904 17.2483 9.706 17.3043 9.51C17.3643 9.31 17.4283 9.104 17.4963 8.892L18.2763 6.096C18.3083 6.004 18.3683 5.928 18.4563 5.868C18.5443 5.804 18.6483 5.772 18.7683 5.772H19.5963C19.7283 5.772 19.8383 5.804 19.9263 5.868C20.0183 5.928 20.0803 6.004 20.1123 6.096L20.8563 8.892C20.9163 9.104 20.9743 9.31 21.0303 9.51C21.0903 9.71 21.1443 9.912 21.1923 10.116C21.2243 9.916 21.2623 9.716 21.3063 9.516C21.3503 9.316 21.4003 9.108 21.4563 8.892L22.1163 6.102C22.1483 6.01 22.2083 5.934 22.2963 5.874C22.3843 5.81 22.4883 5.778 22.6083 5.778H24.0243ZM28.4414 8.142C28.4414 7.994 28.4214 7.85 28.3814 7.71C28.3454 7.57 28.2834 7.446 28.1954 7.338C28.1114 7.226 27.9994 7.136 27.8594 7.068C27.7194 7 27.5494 6.966 27.3494 6.966C26.9974 6.966 26.7214 7.068 26.5214 7.272C26.3214 7.472 26.1894 7.762 26.1254 8.142H28.4414ZM26.1014 9.222C26.1614 9.742 26.3194 10.12 26.5754 10.356C26.8314 10.588 27.1614 10.704 27.5654 10.704C27.7814 10.704 27.9674 10.678 28.1234 10.626C28.2794 10.574 28.4174 10.516 28.5374 10.452C28.6614 10.388 28.7734 10.33 28.8734 10.278C28.9774 10.226 29.0854 10.2 29.1974 10.2C29.3454 10.2 29.4574 10.254 29.5334 10.362L30.0734 11.028C29.8814 11.248 29.6734 11.428 29.4494 11.568C29.2294 11.704 29.0014 11.812 28.7654 11.892C28.5334 11.968 28.2994 12.02 28.0634 12.048C27.8314 12.08 27.6094 12.096 27.3974 12.096C26.9614 12.096 26.5514 12.026 26.1674 11.886C25.7874 11.742 25.4534 11.53 25.1654 11.25C24.8814 10.97 24.6554 10.622 24.4874 10.206C24.3234 9.79 24.2414 9.306 24.2414 8.754C24.2414 8.338 24.3114 7.944 24.4514 7.572C24.5954 7.2 24.7994 6.874 25.0634 6.594C25.3314 6.314 25.6534 6.092 26.0294 5.928C26.4094 5.764 26.8374 5.682 27.3134 5.682C27.7254 5.682 28.1014 5.746 28.4414 5.874C28.7854 6.002 29.0794 6.188 29.3234 6.432C29.5714 6.676 29.7634 6.976 29.8994 7.332C30.0394 7.684 30.1094 8.084 30.1094 8.532C30.1094 8.672 30.1034 8.786 30.0914 8.874C30.0794 8.962 30.0574 9.032 30.0254 9.084C29.9934 9.136 29.9494 9.172 29.8934 9.192C29.8414 9.212 29.7734 9.222 29.6894 9.222H26.1014ZM32.7802 6.738C32.9722 6.402 33.1922 6.138 33.4402 5.946C33.6922 5.754 33.9802 5.658 34.3042 5.658C34.5842 5.658 34.8122 5.724 34.9882 5.856L34.8682 7.224C34.8482 7.312 34.8142 7.372 34.7662 7.404C34.7222 7.436 34.6602 7.452 34.5802 7.452C34.5482 7.452 34.5062 7.45 34.4542 7.446C34.4022 7.442 34.3482 7.438 34.2922 7.434C34.2362 7.426 34.1782 7.42 34.1182 7.416C34.0622 7.408 34.0102 7.404 33.9622 7.404C33.6902 7.404 33.4722 7.476 33.3082 7.62C33.1482 7.764 33.0122 7.964 32.9002 8.22V12H31.0402V5.778H32.1442C32.2362 5.778 32.3122 5.786 32.3722 5.802C32.4362 5.818 32.4882 5.844 32.5282 5.88C32.5722 5.912 32.6042 5.956 32.6242 6.012C32.6482 6.068 32.6682 6.136 32.6842 6.216L32.7802 6.738ZM39.3867 8.142C39.3867 7.994 39.3667 7.85 39.3267 7.71C39.2907 7.57 39.2287 7.446 39.1407 7.338C39.0567 7.226 38.9447 7.136 38.8047 7.068C38.6647 7 38.4947 6.966 38.2947 6.966C37.9427 6.966 37.6667 7.068 37.4667 7.272C37.2667 7.472 37.1347 7.762 37.0707 8.142H39.3867ZM37.0467 9.222C37.1067 9.742 37.2647 10.12 37.5207 10.356C37.7767 10.588 38.1067 10.704 38.5107 10.704C38.7267 10.704 38.9127 10.678 39.0687 10.626C39.2247 10.574 39.3627 10.516 39.4827 10.452C39.6067 10.388 39.7187 10.33 39.8187 10.278C39.9227 10.226 40.0307 10.2 40.1427 10.2C40.2907 10.2 40.4027 10.254 40.4787 10.362L41.0187 11.028C40.8267 11.248 40.6187 11.428 40.3947 11.568C40.1747 11.704 39.9467 11.812 39.7107 11.892C39.4787 11.968 39.2447 12.02 39.0087 12.048C38.7767 12.08 38.5547 12.096 38.3427 12.096C37.9067 12.096 37.4967 12.026 37.1127 11.886C36.7327 11.742 36.3987 11.53 36.1107 11.25C35.8267 10.97 35.6007 10.622 35.4327 10.206C35.2687 9.79 35.1867 9.306 35.1867 8.754C35.1867 8.338 35.2567 7.944 35.3967 7.572C35.5407 7.2 35.7447 6.874 36.0087 6.594C36.2767 6.314 36.5987 6.092 36.9747 5.928C37.3547 5.764 37.7827 5.682 38.2587 5.682C38.6707 5.682 39.0467 5.746 39.3867 5.874C39.7307 6.002 40.0247 6.188 40.2687 6.432C40.5167 6.676 40.7087 6.976 40.8447 7.332C40.9847 7.684 41.0547 8.084 41.0547 8.532C41.0547 8.672 41.0487 8.786 41.0367 8.874C41.0247 8.962 41.0027 9.032 40.9707 9.084C40.9387 9.136 40.8947 9.172 40.8387 9.192C40.7867 9.212 40.7187 9.222 40.6347 9.222H37.0467ZM45.7595 7.446C45.6195 7.29 45.4675 7.182 45.3035 7.122C45.1395 7.058 44.9675 7.026 44.7875 7.026C44.6155 7.026 44.4575 7.06 44.3135 7.128C44.1695 7.196 44.0435 7.306 43.9355 7.458C43.8315 7.606 43.7495 7.8 43.6895 8.04C43.6295 8.28 43.5995 8.57 43.5995 8.91C43.5995 9.238 43.6235 9.514 43.6715 9.738C43.7195 9.962 43.7855 10.144 43.8695 10.284C43.9575 10.42 44.0615 10.518 44.1815 10.578C44.3015 10.638 44.4355 10.668 44.5835 10.668C44.7195 10.668 44.8415 10.656 44.9495 10.632C45.0615 10.604 45.1635 10.566 45.2555 10.518C45.3475 10.47 45.4335 10.41 45.5135 10.338C45.5975 10.262 45.6795 10.176 45.7595 10.08V7.446ZM47.6195 3.018V12H46.4675C46.2355 12 46.0835 11.896 46.0115 11.688L45.8675 11.214C45.7435 11.346 45.6135 11.466 45.4775 11.574C45.3415 11.682 45.1935 11.776 45.0335 11.856C44.8775 11.932 44.7075 11.99 44.5235 12.03C44.3435 12.074 44.1475 12.096 43.9355 12.096C43.6115 12.096 43.3115 12.024 43.0355 11.88C42.7595 11.736 42.5215 11.528 42.3215 11.256C42.1215 10.984 41.9635 10.652 41.8475 10.26C41.7355 9.864 41.6795 9.414 41.6795 8.91C41.6795 8.446 41.7435 8.016 41.8715 7.62C41.9995 7.22 42.1795 6.876 42.4115 6.588C42.6475 6.296 42.9295 6.068 43.2575 5.904C43.5855 5.74 43.9475 5.658 44.3435 5.658C44.6675 5.658 44.9395 5.704 45.1595 5.796C45.3795 5.888 45.5795 6.012 45.7595 6.168V3.018H47.6195ZM53.5134 10.308C53.6534 10.46 53.8054 10.568 53.9694 10.632C54.1334 10.696 54.2994 10.728 54.4674 10.728C54.6434 10.728 54.8054 10.696 54.9534 10.632C55.1014 10.564 55.2274 10.456 55.3314 10.308C55.4394 10.156 55.5234 9.958 55.5834 9.714C55.6434 9.466 55.6734 9.162 55.6734 8.802C55.6734 8.49 55.6494 8.226 55.6014 8.01C55.5574 7.79 55.4894 7.612 55.3974 7.476C55.3094 7.336 55.1974 7.236 55.0614 7.176C54.9294 7.112 54.7774 7.08 54.6054 7.08C54.3774 7.08 54.1794 7.13 54.0114 7.23C53.8434 7.33 53.6774 7.476 53.5134 7.668V10.308ZM53.5134 6.438C53.7534 6.21 54.0154 6.028 54.2994 5.892C54.5874 5.752 54.9074 5.682 55.2594 5.682C55.6114 5.682 55.9314 5.754 56.2194 5.898C56.5074 6.042 56.7534 6.248 56.9574 6.516C57.1614 6.78 57.3174 7.1 57.4254 7.476C57.5374 7.852 57.5934 8.272 57.5934 8.736C57.5934 9.24 57.5294 9.698 57.4014 10.11C57.2734 10.522 57.0914 10.876 56.8554 11.172C56.6234 11.464 56.3454 11.692 56.0214 11.856C55.6974 12.016 55.3394 12.096 54.9474 12.096C54.7594 12.096 54.5914 12.078 54.4434 12.042C54.2954 12.006 54.1594 11.956 54.0354 11.892C53.9114 11.824 53.7974 11.744 53.6934 11.652C53.5934 11.56 53.4954 11.46 53.3994 11.352L53.3334 11.664C53.3014 11.792 53.2494 11.88 53.1774 11.928C53.1054 11.976 53.0094 12 52.8894 12H51.6534V3.018H53.5134V6.438ZM64.2666 5.778L60.9426 13.614C60.8866 13.738 60.8186 13.828 60.7386 13.884C60.6586 13.944 60.5306 13.974 60.3546 13.974H58.9626L60.1626 11.454L57.6786 5.778H59.3226C59.4666 5.778 59.5766 5.81 59.6526 5.874C59.7326 5.938 59.7906 6.014 59.8266 6.102L60.8466 8.784C60.9426 9.028 61.0206 9.278 61.0806 9.534C61.1246 9.406 61.1686 9.278 61.2126 9.15C61.2566 9.022 61.3026 8.896 61.3506 8.772L62.2746 6.102C62.3106 6.01 62.3746 5.934 62.4666 5.874C62.5586 5.81 62.6586 5.778 62.7666 5.778H64.2666Z" fill="#CCCCCC"/>
<g clip-path="url(#clip0)">
<mask id="mask0" mask-type="alpha" maskUnits="userSpaceOnUse" x="0" y="21" width="152" height="23">
<path d="M0.250305 21.6981H151.412V43.0075H0.250305V21.6981Z" fill="white"/>
</mask>
<g mask="url(#mask0)">
<path fill-rule="evenodd" clip-rule="evenodd" d="M0.250305 38.8524H3.33451V31.2549C3.33451 29.1656 4.58447 27.9175 6.36806 27.9175C8.2023 27.9175 9.24967 29.115 9.24967 31.2043V38.8524H12.3339V30.2618C12.3339 27.1523 10.5738 25.1119 7.54024 25.1119C5.45094 25.1119 4.20279 26.2081 3.33451 27.458V25.3922H0.250305V38.8524ZM21.7511 39.1581C24.2221 39.1581 25.9821 38.165 27.2556 36.6347L25.4467 35.0283C24.3758 36.0739 23.3049 36.6347 21.7999 36.6347C19.8119 36.6347 18.2563 35.4118 17.9252 33.2176H27.8164C27.8435 32.9119 27.8688 32.6333 27.8688 32.353C27.8688 28.4764 25.7 25.1119 21.4182 25.1119C17.5689 25.1119 14.841 28.272 14.841 32.1232V32.1739C14.841 36.329 17.8493 39.1581 21.7511 39.1581ZM17.9017 31.179C18.1803 29.0897 19.508 27.6353 21.3929 27.6353C23.4316 27.6353 24.6056 29.191 24.8082 31.179H17.9017ZM34.7337 39.0821C35.9077 39.0821 36.7506 38.8271 37.514 38.3929V35.8713C36.9026 36.177 36.2912 36.329 35.602 36.329C34.5564 36.329 33.945 35.8442 33.945 34.6467V28.0441H37.5646V25.3922H33.945V21.6966H30.8608V25.3922H29.1532V28.0441H30.8608V35.1296C30.8608 38.0872 32.4671 39.0821 34.7337 39.0821ZM45.882 39.1581C48.5068 39.1581 50.0606 38.1125 51.3866 36.6347L49.5252 34.7986C48.5574 35.7935 47.4865 36.4556 46.034 36.4556C43.6625 36.4556 42.0055 34.5454 42.0055 32.1485V32.0979C42.0055 29.7517 43.6625 27.8144 45.9056 27.8144C47.4359 27.8144 48.4308 28.5018 49.3732 29.4967L51.3106 27.4327C50.0353 26.0561 48.4543 25.1119 45.9309 25.1119C41.8789 25.1119 38.9213 28.3245 38.9213 32.1485V32.1992C38.9213 36.0232 41.8789 39.1581 45.882 39.1581ZM59.6678 39.1581C63.8229 39.1581 66.8818 35.9726 66.8818 32.1485V32.0979C66.8818 28.2467 63.8464 25.1119 59.7184 25.1119C55.5887 25.1119 52.528 28.2992 52.528 32.1485V32.1992C52.528 36.0232 55.5615 39.1581 59.6678 39.1581ZM59.7184 36.4556C57.3216 36.4556 55.6122 34.4929 55.6122 32.1485V32.0979C55.6122 29.7517 57.1932 27.8144 59.6678 27.8144C62.0899 27.8144 63.7957 29.7771 63.7957 32.1485V32.1992C63.7957 34.5182 62.2166 36.4556 59.7184 36.4556ZM69.4775 38.8524H72.5618V31.2549C72.5618 29.191 73.7339 27.9175 75.4415 27.9175C77.1492 27.9175 78.1676 29.0897 78.1676 31.179V38.8524H81.2536V31.2549C81.2536 29.0897 82.4511 27.9175 84.1352 27.9175C85.8681 27.9175 86.8612 29.0643 86.8612 31.2043V38.8524H89.9473V30.2618C89.9473 26.9732 88.1637 25.1119 85.2314 25.1119C83.1928 25.1119 81.7655 26.0561 80.6928 27.4833C79.9783 26.0561 78.6017 25.1119 76.6644 25.1119C74.6004 25.1119 73.4264 26.2334 72.5618 27.4327V25.3922H69.4775V38.8524ZM93.272 42.9315H96.3562V36.7613C97.2987 38.0112 98.7006 39.1328 100.944 39.1328C104.131 39.1328 107.188 36.6093 107.188 32.1485V32.0979C107.188 27.6118 104.104 25.1119 100.944 25.1119C98.7512 25.1119 97.3493 26.2334 96.3562 27.6353V25.3922H93.272V42.9315ZM100.206 36.4556C98.1145 36.4556 96.2785 34.7226 96.2785 32.1485V32.0979C96.2785 29.522 98.1145 27.7891 100.206 27.7891C102.295 27.7891 104.055 29.4967 104.055 32.0979V32.1485C104.055 34.7986 102.32 36.4556 100.206 36.4556ZM113.653 39.1328C115.719 39.1328 117.121 38.2663 118.038 37.1701V38.8524H121.046V30.8733C121.046 29.115 120.587 27.6878 119.595 26.7182C118.651 25.7504 117.146 25.2132 115.133 25.2132C112.991 25.2132 111.538 25.6473 110.059 26.3094L110.875 28.7315C112.099 28.2232 113.221 27.8904 114.724 27.8904C116.891 27.8904 118.065 28.9106 118.065 30.8226V31.1536C117.019 30.8226 115.949 30.5929 114.445 30.5929C111.157 30.5929 108.887 32.0201 108.887 34.927V34.9777C108.887 37.6802 111.131 39.1328 113.653 39.1328ZM114.521 36.8897C113.043 36.8897 111.895 36.1499 111.895 34.8511V34.7986C111.895 33.3967 113.067 32.5574 115.057 32.5574C116.281 32.5574 117.325 32.7853 118.114 33.091V34.0099C118.114 35.7175 116.56 36.8897 114.521 36.8897ZM124.291 38.8524H127.376V31.2549C127.376 29.1656 128.626 27.9175 130.409 27.9175C132.247 27.9175 133.291 29.115 133.291 31.2043V38.8524H136.375V30.2618C136.375 27.1523 134.617 25.1119 131.583 25.1119C129.492 25.1119 128.244 26.2081 127.376 27.458V25.3922H124.291V38.8524ZM144.709 35.3865L140.912 25.3922H137.598L143.204 38.8777C142.693 40.0246 142.16 40.4081 141.293 40.4081C140.655 40.4081 140.043 40.2037 139.483 39.8979L138.439 42.1917C139.38 42.7018 140.349 43.0075 141.624 43.0075C143.791 43.0075 144.989 41.9872 146.058 39.2341L151.412 25.3922H148.2L144.709 35.3865Z" fill="#CCCCCC"/>
</g>
</g>
<defs>
<clipPath id="clip0">
<rect width="152" height="22" fill="white" transform="translate(0 21)"/>
</clipPath>
</defs>
</svg>
